<svg xmlns:dc="http://purl.org/dc/elements/1.1/" xmlns:cc="http://creativecommons.org/ns#"
    xmlns:rdf="http://www.w3.org/1999/02/22-rdf-syntax-ns#" xmlns:svg="http://www.w3.org/2000/svg"
    xmlns="http://www.w3.org/2000/svg" xmlns:sodipodi="http://sodipodi.sourceforge.net/DTD/sodipodi-0.dtd"
    xmlns:inkscape="http://www.inkscape.org/namespaces/inkscape" height="8.312915mm" viewBox="0 0 30.243357 8.3129148"
    width="30.243357mm" version="1.1" id="svg248" sodipodi:docname="logo.svg"
    inkscape:version="0.92.2 5c3e80d, 2017-08-06">
    <metadata id="metadata254">
        <rdf:rdf>
            <cc:work rdf:about="">
                <dc:format>image/svg+xml</dc:format>
                <dc:type rdf:resource="http://purl.org/dc/dcmitype/StillImage"></dc:type>
                <dc:title></dc:title>
            </cc:work>
        </rdf:rdf>
    </metadata>
    <defs id="defs252"></defs>
    <sodipodi:namedview pagecolor="#ffffff" bordercolor="#666666" borderopacity="1" objecttolerance="10"
        gridtolerance="10" guidetolerance="10" inkscape:pageopacity="0" inkscape:pageshadow="2"
        inkscape:window-width="640" inkscape:window-height="480" id="namedview250" showgrid="false"
        inkscape:zoom="4.3952297" inkscape:cx="76.046334" inkscape:cy="24.565243" inkscape:current-layer="text240">
    </sodipodi:namedview>
    <g stroke-width=".264583" transform="translate(-113.35626 -98.228543)" id="g246">
        <g aria-label="switowski" style="font-size:10.58333302px;font-family:Raleway;letter-spacing:0;word-spacing:0"
            id="text240">
            <path
                d="m 115.35626,104.05777 0.23875,-0.34417 q 0.16433,0.18604 0.43718,0.31316 0.27285,0.12712 0.57361,0.12712 0.34416,0 0.5364,-0.14572 0.19534,-0.14573 0.19534,-0.38137 0,-0.14883 -0.10542,-0.25115 -0.10542,-0.10232 -0.27285,-0.15813 -0.16744,-0.0558 -0.36897,-0.10232 -0.20154,-0.0465 -0.40618,-0.10852 -0.20154,-0.062 -0.36897,-0.15193 -0.16743,-0.0899 -0.27285,-0.25425 -0.10542,-0.16743 -0.10542,-0.39687 0,-0.37828 0.30385,-0.62942 0.30386,-0.25425 0.83406,-0.25425 0.70073,0 1.13482,0.44648 l -0.22014,0.32867 q -0.14263,-0.17364 -0.38448,-0.27906 -0.23874,-0.10852 -0.5302,-0.10852 -0.30696,0 -0.49299,0.13953 -0.18604,0.13642 -0.18604,0.34416 0,0.13333 0.10542,0.22635 0.10542,0.0899 0.26976,0.14262 0.16743,0.0496 0.36896,0.0961 0.20464,0.0434 0.40618,0.10852 0.20464,0.0651 0.36897,0.16123 0.16743,0.093 0.27285,0.26975 0.10542,0.17674 0.10542,0.41858 0,0.40308 -0.31626,0.66663 -0.31316,0.26045 -0.88366,0.26045 -0.77205,0 -1.23714,-0.48369 z"
                style="font-size:6.3499999px;font-family:'Proxima Nova Alt';stroke-width:0.26458299" id="path256">
            </path>
            <path
                d="m 118.16849,101.39746 h 0.493 l 0.75034,2.44327 0.80615,-2.44327 h 0.41238 l 0.79995,2.44327 0.75034,-2.44327 h 0.5023 l -0.97979,3.06648 h -0.48059 l -0.79995,-2.46496 -0.79995,2.46496 h -0.47749 z"
                style="font-size:6.3499999px;font-family:'Proxima Nova Alt';stroke-width:0.26458299" id="path258">
            </path>
            <path
                d="m 123.24105,100.86726 q -0.093,-0.093 -0.093,-0.22634 0,-0.13332 0.093,-0.22634 0.0961,-0.0961 0.22945,-0.0961 0.13332,0 0.22634,0.0961 0.093,0.093 0.093,0.22634 0,0.13333 -0.093,0.22634 -0.093,0.093 -0.22634,0.093 -0.13333,0 -0.22945,-0.093 z m -0.009,3.59668 v -3.06648 h 0.47439 v 3.06648 z"
                style="font-size:6.3499999px;font-family:'Proxima Nova Alt';stroke-width:0.26458299" id="path260">
            </path>
            <path
                d="m 124.24254,101.81604 v -0.41858 h 0.5085 v -0.84025 h 0.48369 v 0.84025 h 0.62322 v 0.41858 h -0.62322 v 1.90376 q 0,0.17984 0.0775,0.28836 0.0775,0.10542 0.22635,0.10542 0.21084,0 0.32556,-0.13333 l 0.13952,0.36277 q -0.20774,0.19844 -0.5643,0.19844 -0.33797,0 -0.5147,-0.18604 -0.17363,-0.18913 -0.17363,-0.5333 v -2.00608 z"
                style="font-size:6.3499999px;font-family:'Proxima Nova Alt';stroke-width:0.26458299" id="path262">
            </path>
            <path
                d="m 126.53387,103.73841 q -0.18293,-0.36587 -0.18293,-0.81236 0,-0.44648 0.18293,-0.80925 0.18294,-0.36277 0.5302,-0.57981 0.35037,-0.21704 0.80616,-0.21704 0.45578,0 0.80305,0.21704 0.35036,0.21704 0.5302,0.57981 0.18293,0.36277 0.18293,0.80925 0,0.44649 -0.18293,0.81236 -0.17984,0.36587 -0.5302,0.58601 -0.34727,0.21704 -0.80305,0.21704 -0.45579,0 -0.80616,-0.21704 -0.34726,-0.22014 -0.5302,-0.58601 z m 0.31936,-0.81236 q 0,0.4961 0.27286,0.84336 0.27285,0.34417 0.74414,0.34417 0.31626,0 0.5488,-0.16743 0.23565,-0.16744 0.35037,-0.43099 0.11472,-0.26665 0.11472,-0.58911 0,-0.31936 -0.11472,-0.58291 -0.11472,-0.26355 -0.35037,-0.43098 -0.23254,-0.16743 -0.5488,-0.16743 -0.31626,0 -0.55191,0.16743 -0.23564,0.16743 -0.35036,0.43408 -0.11473,0.26355 -0.11473,0.57981 z"
                style="font-size:6.3499999px;font-family:'Proxima Nova Alt';stroke-width:0.26458299" id="path264">
            </path>
            <path
                d="m 129.76468,101.39746 h 0.493 l 0.75034,2.44327 0.80615,-2.44327 h 0.41238 l 0.79995,2.44327 0.75034,-2.44327 h 0.5023 l -0.97979,3.06648 h -0.48059 l -0.79995,-2.46496 -0.79995,2.46496 h -0.47749 z"
                style="font-size:6.3499999px;font-family:'Proxima Nova Alt';stroke-width:0.26458299" id="path266">
            </path>
            <path
                d="m 134.56749,104.05777 0.23875,-0.34417 q 0.16433,0.18604 0.43718,0.31316 0.27285,0.12712 0.57361,0.12712 0.34416,0 0.5364,-0.14572 0.19534,-0.14573 0.19534,-0.38137 0,-0.14883 -0.10542,-0.25115 -0.10542,-0.10232 -0.27286,-0.15813 -0.16743,-0.0558 -0.36897,-0.10232 -0.20153,-0.0465 -0.40617,-0.10852 -0.20154,-0.062 -0.36897,-0.15193 -0.16743,-0.0899 -0.27285,-0.25425 -0.10542,-0.16743 -0.10542,-0.39687 0,-0.37828 0.30385,-0.62942 0.30386,-0.25425 0.83406,-0.25425 0.70073,0 1.13482,0.44648 l -0.22015,0.32867 q -0.14262,-0.17364 -0.38447,-0.27906 -0.23874,-0.10852 -0.5302,-0.10852 -0.30696,0 -0.49299,0.13953 -0.18604,0.13642 -0.18604,0.34416 0,0.13333 0.10542,0.22635 0.10542,0.0899 0.26975,0.14262 0.16744,0.0496 0.36897,0.0961 0.20464,0.0434 0.40618,0.10852 0.20464,0.0651 0.36897,0.16123 0.16743,0.093 0.27285,0.26975 0.10542,0.17674 0.10542,0.41858 0,0.40308 -0.31626,0.66663 -0.31316,0.26045 -0.88366,0.26045 -0.77205,0 -1.23714,-0.48369 z"
                style="font-size:6.3499999px;font-family:'Proxima Nova Alt';stroke-width:0.26458299" id="path268">
            </path>
            <path
                d="m 137.7797,104.46394 v -4.2354 h 0.47439 v 2.79983 l 1.6123,-1.63091 h 0.60462 l -1.35806,1.38907 1.36426,1.67741 h -0.61082 l -1.0976,-1.37666 -0.5147,0.4992 v 0.87746 z"
                style="font-size:6.3499999px;font-family:'Proxima Nova Alt';stroke-width:0.26458299" id="path270">
            </path>
            <path
                d="m 141.05082,100.86726 q -0.093,-0.093 -0.093,-0.22634 0,-0.13332 0.093,-0.22634 0.0961,-0.0961 0.22944,-0.0961 0.13332,0 0.22634,0.0961 0.093,0.093 0.093,0.22634 0,0.13333 -0.093,0.22634 -0.093,0.093 -0.22634,0.093 -0.13333,0 -0.22944,-0.093 z m -0.009,3.59668 v -3.06648 h 0.47439 v 3.06648 z"
                style="font-size:6.3499999px;font-family:'Proxima Nova Alt';stroke-width:0.26458299" id="path272">
            </path>
        </g>
        <g style="" id="text244"></g>
    </g>
</svg>